<?xml version="1.0" encoding="UTF-8" standalone="no"?>
<svg
   xmlns:dc="http://purl.org/dc/elements/1.1/"
   xmlns:cc="http://creativecommons.org/ns#"
   xmlns:rdf="http://www.w3.org/1999/02/22-rdf-syntax-ns#"
   xmlns:svg="http://www.w3.org/2000/svg"
   xmlns="http://www.w3.org/2000/svg"
   width="150.04382mm"
   height="106.4256mm"
   viewBox="0 0 150.04382 106.4256"
   version="1.1"
   id="svg8">
  <defs
     id="defs2" />
  <metadata
     id="metadata5">
    <rdf:RDF>
      <cc:Work
         rdf:about="">
        <dc:format>image/svg+xml</dc:format>
        <dc:type
           rdf:resource="http://purl.org/dc/dcmitype/StillImage" />
        <dc:title></dc:title>
      </cc:Work>
    </rdf:RDF>
  </metadata>
  <g
     id="layer1"
     transform="translate(-2.4568452,-46.27301)">
    <circle
       style="fill:#aaeeff;fill-opacity:1;stroke:none;stroke-width:2.2898"
       id="path894"
       cx="77.47876"
       cy="99.485809"
       r="53.212799" />
    <ellipse
       style="fill:#d45500;fill-opacity:1;stroke:none;stroke-width:0.28746"
       id="path1046"
       cx="71.905533"
       cy="75.785706"
       rx="1.1206403"
       ry="0.75447589" />
    <ellipse
       style="fill:#d45500;fill-opacity:1;stroke:none;stroke-width:0.264583"
       id="path1044"
       cx="49.544411"
       cy="78.926155"
       rx="1.836728"
       ry="1.3111049" />
    <path
       style="fill:#aa4400;stroke:none;stroke-width:0.264583px;stroke-linecap:butt;stroke-linejoin:miter;stroke-opacity:1"
       d="M 44.698557,124.73753 64.540341,122.9713 C 47.746687,120.5266 44.01331,98.960518 39.388714,79.684687 l -8.204771,1.762962 c 2.859933,21.954121 8.2726,26.300051 13.514614,43.289881 z"
       id="path868-1" />
    <ellipse
       style="fill:#aa4400;fill-opacity:1;stroke-width:0.264583"
       id="path893"
       cx="86.227829"
       cy="76.054878"
       rx="5.2451644"
       ry="4.3264256" />
    <path
       style="fill:#aa4400;stroke:none;stroke-width:0.264583px;stroke-linecap:butt;stroke-linejoin:miter;stroke-opacity:1"
       d="m 93.265622,129.83482 21.922618,-7.37054 C 98.394587,120.01958 94.39394,93.642645 89.769344,74.366814 l -7.9375,1.228423 c 1.159039,21.765127 8.386087,36.159723 11.433778,54.239583 z"
       id="path868" />
    <path
       id="path835"
       style="fill:#d45500;stroke-width:0.999999"
       d="m 306.83395,510.12661 c 59.66124,6.31251 172.98639,-0.28442 172.48246,-103.28677 -5.8e-4,-0.44598 -0.005,-0.89195 -0.0137,-1.33789 -12.61816,9.78615 -29.21581,15.22658 -46.45312,15.22657 -6.11901,-1.1e-4 -12.21016,-0.68662 -18.10938,-2.04102 -35.89604,18.88103 -82.30036,29.31429 -130.38281,29.31445 -69.21823,-1.9e-4 -133.27222,-144.72256 -126.92105,-42.55512 -1.56853,144.646 101.83383,100.90452 149.3976,104.67978 z"
       transform="scale(0.26458333)" />
    <path
       style="fill:#a05a2c;fill-opacity:1;stroke:none;stroke-width:0.264583px;stroke-linecap:butt;stroke-linejoin:miter;stroke-opacity:1"
       d="M 3.4017857,105.83333 C 33.07375,87.14947 91.997785,78.265811 123.03125,76.162201 c 6.0285,2.558707 11.23464,3.747935 17.19791,10.394347 1.29326,1.281251 3.37846,-0.592819 2.25443,-1.69991 -6.36613,-6.168744 -7.63665,-7.639342 -11.89282,-10.773306 l 21.54464,-6.047618 c 1.04755,-0.253889 -0.25771,-5.275861 -2.64583,-4.913691 C 111.40047,77.338658 59.677241,69.613771 2.4568452,90.147321 Z"
       id="path849" />
    <path
       id="path849-5"
       style="fill:#784421;fill-opacity:1;stroke:none;stroke-width:0.999999px;stroke-linecap:butt;stroke-linejoin:miter;stroke-opacity:1"
       d="M 574.50391,246.16016 C 405.64474,307.33343 197.16563,279.9075 11.529297,377.95312 L 12.857422,400 C 124.84774,329.48189 347.07718,295.90328 464.49805,287.89258 c 19.24224,7.59582 46.71285,18.30851 65.50195,39.25 3.62948,3.59584 8.89996,0.61465 9.63867,-2.8711 -3.03639,0.20297 -2.84322,2.61468 -11.25781,-4.12304 -11.83283,-9.47471 -33.87565,-31.11026 -31.42969,-37.60156 -1.10464,-0.8374 -2.15751,-1.64754 -3.3789,-2.54688 L 575,257.14258 c 2.09677,-0.50818 1.68224,-6.06494 -0.49609,-10.98242 z"
       transform="scale(0.26458333)" />
    <path
       id="path833"
       style="fill:#d45500;fill-opacity:1;stroke-width:0.264583"
       d="m 126.96554,107.98558 c 0,7.61939 -6.85364,13.79613 -15.30803,13.79613 -8.4544,0 -15.308037,-6.17674 -15.308037,-13.79613 0,-6.34017 5.528417,-11.505823 10.170587,-13.248972 1.85025,-0.694778 3.32808,-0.812563 3.32808,-0.812563 -0.88479,-1.010609 -1.83332,-1.638137 -2.96258,-2.191441 1.53742,-0.566205 3.3177,0.786583 3.3177,0.786583 -0.13736,-1.001509 -0.61399,-1.396517 -0.91867,-2.093237 4.01137,0.747841 5.8606,2.657963 8.11828,3.877848 4.93644,2.66729 9.56267,8.190822 9.56267,13.681782 z" />
    <path
       style="fill:#aa4400;stroke:none;stroke-width:0.264583px;stroke-linecap:butt;stroke-linejoin:miter;stroke-opacity:1"
       d="m 81.8847,73.966842 c -0.677398,0.7649 -0.535301,1.620855 -0.434312,2.472242 0.210907,1.252485 9.661112,0.342655 9.655111,-1.102487 0.06631,-1.508844 -0.783729,-1.938329 -1.770661,-2.405425 l -3.741774,-0.935444 z"
       id="path895" />
    <path
       style="fill:#cccccc;stroke:none;stroke-width:0.32133px;stroke-linecap:butt;stroke-linejoin:miter;stroke-opacity:1"
       d="m 84.356583,83.628492 c -0.805096,-2.276429 -1.443817,-2.722737 -2.524739,-8.033255 0.63642,-0.516391 0.991967,-1.474156 2.639498,-0.40166 0.237343,2.921876 0.401112,5.814324 -0.114756,8.434915 z"
       id="path870" />
    <path
       style="fill:#cccccc;stroke:none;stroke-width:0.32133px;stroke-linecap:butt;stroke-linejoin:miter;stroke-opacity:1"
       d="m 87.627264,83.685875 c -1.038232,-2.153342 -2.173173,-5.521561 -2.75426,-8.89396 0.628918,-0.564026 0.996653,-1.575797 2.639499,-0.40166 0.248526,3.16863 0.324624,6.279786 0.114755,9.29562 z"
       id="path870-7" />
    <path
       style="fill:#cccccc;stroke:none;stroke-width:0.32133px;stroke-linecap:butt;stroke-linejoin:miter;stroke-opacity:1"
       d="m 90.507761,82.825172 c -0.84158,-2.086931 -1.683159,-4.155897 -2.524739,-8.033255 0.577493,-0.637786 1.164947,-1.258972 2.639498,-0.40166 0.385555,2.811638 0.262781,5.623277 -0.114756,8.434915 z"
       id="path870-9" />
    <ellipse
       style="fill:#aa4400;fill-opacity:1;stroke-width:0.264583"
       id="path893-8"
       cx="35.579929"
       cy="81.907288"
       rx="5.2451644"
       ry="4.3264256" />
    <path
       style="fill:#aa4400;stroke:none;stroke-width:0.264583px;stroke-linecap:butt;stroke-linejoin:miter;stroke-opacity:1"
       d="m 31.160987,80.442082 c -0.677398,0.7649 -0.535301,1.620855 -0.434312,2.472242 0.210907,1.252485 9.661112,0.342655 9.655111,-1.102487 0.06631,-1.508844 -0.783729,-1.938329 -1.770661,-2.405425 l -3.741774,-0.935444 z"
       id="path895-0" />
    <path
       style="fill:#cccccc;stroke:none;stroke-width:0.321331px;stroke-linecap:butt;stroke-linejoin:miter;stroke-opacity:1"
       d="m 33.708683,89.480904 c -0.805097,-2.276428 -1.443818,-2.722737 -2.52474,-8.033255 0.63642,-0.516391 0.991967,-1.474155 2.639499,-0.401659 0.237343,2.921876 0.401111,5.814324 -0.114757,8.434914 z"
       id="path870-8" />
    <path
       style="fill:#cccccc;stroke:none;stroke-width:0.321331px;stroke-linecap:butt;stroke-linejoin:miter;stroke-opacity:1"
       d="m 36.979364,89.538288 c -1.038233,-2.153342 -2.173173,-5.521562 -2.754261,-8.893961 0.628918,-0.564026 0.996654,-1.575797 2.6395,-0.40166 0.248525,3.168631 0.324624,6.279787 0.114754,9.295621 z"
       id="path870-7-1" />
    <path
       style="fill:#cccccc;stroke:none;stroke-width:0.321331px;stroke-linecap:butt;stroke-linejoin:miter;stroke-opacity:1"
       d="m 39.859861,88.677584 c -0.84158,-2.08693 -1.683159,-4.155896 -2.524739,-8.033254 0.577493,-0.637787 1.164946,-1.258973 2.639498,-0.40166 0.385554,2.811637 0.262781,5.623277 -0.114756,8.434914 z"
       id="path870-9-5" />
    <path
       id="path870-9-5-7"
       style="fill:#ececec;stroke:none;stroke-width:0.321331px;stroke-linecap:butt;stroke-linejoin:miter;stroke-opacity:1"
       d="m 37.777474,80.197846 c -0.156726,0.133313 -0.29998,0.289247 -0.442352,0.446484 0.841581,3.87736 1.683329,5.946172 2.524911,8.033102 -1.030068,-2.826486 -1.540473,-5.653101 -2.082559,-8.479586 z" />
    <path
       style="fill:#d45500;stroke:none;stroke-width:0.264583px;stroke-linecap:butt;stroke-linejoin:miter;stroke-opacity:1"
       d="m 76.067627,119.29392 c -7.806514,-9.31082 -27.781103,-0.91885 -27.152291,-40.202451 0.007,-0.709285 1.244372,-0.9063 2.107985,-0.95507 -4.16215,-3.413503 -12.796037,-1.207995 -12.589947,2.197287 2.58933,35.766284 10.511007,38.723394 20.438822,52.341634 l 22.106459,0.63592 z"
       id="path851-7" />
    <path
       style="fill:#d45500;stroke:none;stroke-width:0.264583px;stroke-linecap:butt;stroke-linejoin:miter;stroke-opacity:1"
       d="M 98.084821,115.47172 C 92.998442,106.72693 61.750693,104.6178 70.948968,76.022664 c 0.220035,-0.746111 1.850269,-0.701271 1.850269,-0.701271 -4.260674,-3.020616 -11.789153,-1.481306 -12.183679,1.454612 -1.940478,35.807355 15.068945,42.415055 23.20066,57.176265 l 26.269342,-3.17251 z"
       id="path851" />
    <path
       id="path952"
       style="fill:#ffccaa;fill-opacity:1;stroke:none;stroke-width:1.11456"
       d="m 421.39844,375.71484 a 47.678569,37.499996 0 0 0 -47.19336,33.47657 c 5.01504,-2.20817 10.07532,-5.02333 15.26367,-8.81446 15.04766,-10.16583 36.15418,-2.01712 10.99609,19.23633 -7.93311,6.83459 -13.94005,11.03023 -18.9707,13.8711 a 47.678569,37.499996 0 0 0 40.11328,17.23046 47.678569,37.499996 0 0 0 43.23633,-21.69336 c -3.62649,-1.99372 -7.7305,-4.50936 -12.52148,-7.77148 -27.40082,-18.27114 -7.35102,-28.7558 8.75,-20.35742 2.33189,1.32795 4.61988,2.4844 6.8789,3.50976 a 47.678569,37.499996 0 0 0 -46.34375,-28.6875 47.678569,37.499996 0 0 0 -0.20898,0 z"
       transform="scale(0.26458333)" />
    <path
       style="fill:#000000;stroke:none;stroke-width:0.21833px;stroke-linecap:butt;stroke-linejoin:miter;stroke-opacity:1"
       d="m 102.98106,108.28877 c 1.72443,-1.79443 3.33124,-2.21066 4.88993,-2.06293 0.26305,0.0246 0.38819,0.64682 0.0755,0.57616 -1.42042,-0.29008 -3.0184,0.20541 -4.89249,1.92258 -0.24094,0.19388 -0.24294,-0.2455 -0.073,-0.43581 z"
       id="path980" />
    <path
       style="fill:#000000;stroke:none;stroke-width:0.223763px;stroke-linecap:butt;stroke-linejoin:miter;stroke-opacity:1"
       d="m 122.48875,108.54942 c -1.76017,-1.87942 -3.30783,-2.23963 -4.76854,-1.97818 -0.24654,0.0438 -0.31887,0.74082 -0.0288,0.64293 1.31968,-0.41045 2.86483,0.0381 4.76061,1.82256 0.24176,0.19964 0.21129,-0.28717 0.0369,-0.48731 z"
       id="path980-6" />
    <path
       style="fill:#000000;stroke:none;stroke-width:0.305014px;stroke-linecap:butt;stroke-linejoin:miter;stroke-opacity:1"
       d="m 109.6228,106.29737 c 0.0153,-0.46491 6.11613,-0.41545 6.11646,0.0937 -0.5248,4.76154 -6.24674,3.55543 -6.11646,-0.0937 z"
       id="path997" />
    <path
       style="fill:#000000;stroke:none;stroke-width:0.403903px;stroke-linecap:butt;stroke-linejoin:miter;stroke-opacity:1"
       d="m 109.14619,112.08823 c 3.2275,-2.64507 4.85172,-1.08678 6.71515,-0.15567 -2.32894,-0.26466 -4.56438,-0.20251 -6.71515,0.15567 z"
       id="path999" />
    <path
       id="path870-8-9"
       style="fill:#999999;stroke:none;stroke-width:0.321331px;stroke-linecap:butt;stroke-linejoin:miter;stroke-opacity:1"
       d="m 33.035377,80.645498 c 0.327981,2.929663 0.539565,5.859463 0.681612,8.789128 0.504918,-2.608361 0.342402,-5.483929 0.106453,-8.388636 -0.303623,-0.197649 -0.562356,-0.325279 -0.788065,-0.400492 z" />
    <path
       id="path870-7-1-0"
       style="fill:#999999;stroke:none;stroke-width:0.321331px;stroke-linecap:butt;stroke-linejoin:miter;stroke-opacity:1"
       d="m 36.312699,79.90367 c 0.421614,3.166745 0.556336,6.333447 0.674377,9.500195 0.198455,-2.973994 0.122376,-6.03944 -0.122473,-9.161198 -0.202541,-0.144756 -0.385247,-0.255757 -0.551904,-0.338997 z" />
    <path
       id="path870-0"
       style="fill:#999999;stroke:none;stroke-width:0.321331px;stroke-linecap:butt;stroke-linejoin:miter;stroke-opacity:1"
       d="m 83.774744,74.82874 c 0.542306,3.520805 0.491435,5.941399 0.605647,8.667173 0.48495,-2.585516 0.324311,-5.429495 0.09095,-8.302336 C 84.207158,75.0216 83.978974,74.906501 83.774744,74.82874 Z" />
    <path
       id="path870-7-6"
       style="fill:#999999;stroke:none;stroke-width:0.321331px;stroke-linecap:butt;stroke-linejoin:miter;stroke-opacity:1"
       d="m 86.89962,74.023868 c 0.578066,3.723801 0.510587,6.479714 0.727604,9.661943 0.20987,-3.015835 0.133805,-6.126927 -0.114721,-9.295556 -0.228264,-0.163139 -0.429731,-0.280583 -0.612883,-0.366387 z" />
    <path
       id="path870-9-7"
       style="fill:#999999;stroke:none;stroke-width:0.321331px;stroke-linecap:butt;stroke-linejoin:miter;stroke-opacity:1"
       d="m 89.941424,74.076064 c 0.430922,2.916463 0.569169,5.832875 0.566373,8.749337 0.377539,-2.811637 0.500276,-5.623504 0.114723,-8.435144 -0.252055,-0.146545 -0.476501,-0.246745 -0.681096,-0.314193 z" />
    <path
       id="path870-8-2"
       style="fill:#ececec;stroke:none;stroke-width:0.321331px;stroke-linecap:butt;stroke-linejoin:miter;stroke-opacity:1"
       d="m 31.693475,80.962924 c -0.170373,0.160579 -0.329785,0.338879 -0.509532,0.484725 1.080923,5.310518 1.719815,5.756674 2.524911,8.033102 -0.724887,-2.818125 -1.609754,-5.571995 -2.015379,-8.517827 z" />
    <path
       id="path870-7-1-6"
       style="fill:#ececec;stroke:none;stroke-width:0.321331px;stroke-linecap:butt;stroke-linejoin:miter;stroke-opacity:1"
       d="m 34.717579,80.135832 c -0.165082,0.167847 -0.319812,0.353648 -0.492476,0.508495 0.581088,3.3724 1.716121,6.740689 2.754354,8.894032 -0.954438,-3.053985 -1.808415,-6.148152 -2.261878,-9.402527 z" />
    <path
       id="path870-5"
       style="fill:#ececec;stroke:none;stroke-width:0.321331px;stroke-linecap:butt;stroke-linejoin:miter;stroke-opacity:1"
       d="m 82.260241,75.184411 c -0.141065,0.139752 -0.276719,0.287755 -0.428397,0.410826 1.079492,5.303499 1.718215,5.756235 2.52181,8.024834 -0.913831,-2.784946 -1.590887,-5.599301 -2.093413,-8.43566 z" />
    <path
       id="path870-7-0"
       style="fill:#ececec;stroke:none;stroke-width:0.321331px;stroke-linecap:butt;stroke-linejoin:miter;stroke-opacity:1"
       d="m 85.745815,73.976733 c -0.338797,0.189735 -0.577715,0.550804 -0.872813,0.815454 0.581086,3.372398 1.716122,6.74017 2.754352,8.893513 -1.071303,-3.648686 -1.506061,-6.706409 -1.881539,-9.708967 z" />
    <path
       id="path870-9-72"
       style="fill:#ececec;stroke:none;stroke-width:0.321331px;stroke-linecap:butt;stroke-linejoin:miter;stroke-opacity:1"
       d="m 89.004015,74.021175 c -0.422574,0.119941 -0.723685,0.442516 -1.021127,0.771012 0.841581,3.877357 1.683329,5.946169 2.524911,8.033102 -0.822693,-3.175749 -1.250413,-6.055358 -1.503784,-8.804114 z" />
    <path
       id="path835-4"
       style="fill:#aa4400;stroke-width:0.264583"
       d="m 119.90065,95.920697 c -0.0106,0.006 -0.0209,0.0118 -0.0315,0.0181 3.42535,3.11149 5.54083,6.950433 4.39095,14.524703 -3.46766,23.9438 -35.258852,23.54265 -43.281072,22.84769 -8.022224,-0.69496 -31.762734,6.51245 -37.912944,-12.59509 l -0.0217,0.0444 c 5.68428,21.74296 27.34481,13.35376 38.138764,14.2105 h 5e-4 c 15.22381,1.61076 43.649712,0.0409 45.533652,-24.51891 0.1605,-0.80084 0.24911,-1.62401 0.24911,-2.46652 0,-4.54646 -3.17249,-9.113583 -7.06573,-12.064903 z" />
    <path
       id="path851-3"
       style="fill:#aa4400;stroke:none;stroke-width:0.264583px;stroke-linecap:butt;stroke-linejoin:miter;stroke-opacity:1"
       d="m 71.684465,75.19252 c -0.421901,0.05844 -0.948473,0.569454 -1.107943,1.057301 -8.45705,25.871809 15.536958,30.376809 28.114561,46.108809 3.098467,3.87554 6.367737,4.55988 11.920727,7.89254 l 0.003,-5.2e-4 -12.000822,-15.3081 c -5.086379,-8.74479 -36.68905,-10.27785 -27.490776,-38.872973 0.231786,-0.625714 1.579838,-0.665462 1.676025,-0.748184 0,0 -0.692871,-0.187316 -1.114772,-0.128873 z" />
    <path
       style="fill:#aa4400;stroke:none;stroke-width:0.264583px;stroke-linecap:butt;stroke-linejoin:miter;stroke-opacity:1"
       d="m 98.918562,122.61176 c 3.799688,5.25215 -2.570152,10.27442 -7.633137,10.75905 6.178223,0.87659 12.492065,-0.914 18.800135,-2.59105 l -0.85044,-1.70089 -9.685642,-6.89807 z"
       id="path1533" />
    <path
       style="fill:#aa4400;stroke:none;stroke-width:0.264583px;stroke-linecap:butt;stroke-linejoin:miter;stroke-opacity:1"
       d="m 61.405174,111.67176 c 2.769603,1.25643 6.488792,2.63297 8.234402,3.40549 5.617832,8.359 12.746371,18.53757 19.475936,18.44414 l -15.705462,0.15992 c 7.568605,-0.37007 -5.252602,-18.80457 -12.004876,-22.00955 z"
       id="path1535" />
    <path
       id="path851-7-2"
       style="fill:#aa4400;stroke:none;stroke-width:0.264583px;stroke-linecap:butt;stroke-linejoin:miter;stroke-opacity:1"
       d="m 50.161716,78.05613 c -1.818508,-0.0191 -2.325934,1.06735 -2.21692,1.82366 0.06645,39.69159 15.414077,29.90117 24.655181,43.46476 l 8.378978,9.9666 -9.388093,-14.2845 c -1.687551,-2.01274 -1.960641,-3.94965 -1.960641,-3.94965 -0.109347,-0.003 -0.202915,-0.0824 -0.304938,-0.12331 -9.007981,-3.60765 -20.896848,-5.41574 -20.409487,-35.86248 0.007,-0.70928 1.244269,-0.90621 2.107882,-0.95498 -0.315306,-0.052 -0.602176,-0.0774 -0.861962,-0.0801 z" />
    <ellipse
       style="fill:none;fill-opacity:0;stroke-width:0.264583"
       id="path889"
       cx="64.539436"
       cy="55.732811"
       rx="30.521576"
       ry="34.017857" />
  </g>
</svg>
